<svg width="24" height="23" viewBox="0 0 24 23" fill="none" xmlns="http://www.w3.org/2000/svg">
<path d="M21.1875 0H2.8125C1.2616 0 0 1.2625 0 2.81452V16.934C0 18.486 1.2616 19.7485 2.8125 19.7485H7.2036C8.13769 19.7485 9.02574 20.1863 9.60094 20.9223V20.9223C10.8113 22.471 13.1733 22.4817 14.3711 20.9233V20.9233C14.9405 20.1826 15.8216 19.7485 16.7558 19.7485H21.1875C22.7384 19.7485 24 18.486 24 16.934V2.81452C24 1.2625 22.7384 0 21.1875 0ZM22.125 16.934C22.125 17.4513 21.7044 17.8722 21.1875 17.8722H15.4195C14.7458 17.8722 14.1102 18.1852 13.6996 18.7194V18.7194C12.8356 19.8434 11.1321 19.8358 10.2592 18.7187V18.7187C9.84436 18.1879 9.20393 17.8722 8.53023 17.8722H2.8125C2.29559 17.8722 1.875 17.4513 1.875 16.934V2.81452C1.875 2.29724 2.29559 1.87635 2.8125 1.87635H21.1875C21.7044 1.87635 22.125 2.29724 22.125 2.81452V16.934ZM11.0167 5.25377C11.0167 4.60603 11.5413 4.08105 12.1886 4.08105C12.8357 4.08105 13.3605 4.60603 13.3605 5.25377C13.3605 5.90151 12.8357 6.42648 12.1886 6.42648C11.5413 6.42648 11.0167 5.90151 11.0167 5.25377ZM12.8269 13.8846C13.1787 13.7129 13.603 13.859 13.7746 14.2108L13.9754 14.6228C14.147 14.9747 14.0009 15.3992 13.649 15.5709V15.5709C13.3315 15.7261 12.9904 15.8025 12.6509 15.8025C12.1754 15.8025 11.7036 15.6526 11.3047 15.3591C10.6214 14.8561 10.2764 14.0224 10.4044 13.1833C10.4088 13.154 10.4147 13.1249 10.422 13.0961L11.0681 10.5241C11.1334 10.2644 11.2201 9.9442 11.0045 9.7854V9.7854C10.9319 9.73208 10.7818 9.65603 10.5934 9.7482V9.7482C10.1688 9.95551 9.65687 9.77902 9.4501 9.3542L9.37729 9.20461C9.17078 8.78033 9.34703 8.2689 9.77106 8.06187V8.06187C10.5337 7.68954 11.4318 7.77089 12.1154 8.27388C12.7987 8.77668 13.1437 9.61041 13.0159 10.4494C13.0113 10.4788 13.0054 10.5079 12.9983 10.5367L12.3521 13.1088C12.2869 13.3684 12.2003 13.6884 12.4156 13.8474V13.8474C12.4883 13.9009 12.6383 13.9768 12.8269 13.8846V13.8846Z" fill="url(#paint0_linear_21_723)"/>
<defs>
<linearGradient id="paint0_linear_21_723" x1="-3.72414" y1="-3.31034" x2="21.5172" y2="26.069" gradientUnits="userSpaceOnUse">
<stop stop-color="#CAEE39"/>
<stop offset="1" stop-color="#E99A3D"/>
</linearGradient>
</defs>
</svg>
