<svg width="49" height="38" viewBox="0 0 49 38" fill="none" xmlns="http://www.w3.org/2000/svg">
<path d="M45.0902 4.466L49 0.802V0H35.4556L25.8026 23.536L14.8205 0H0.618625V0.802L5.18583 6.188C5.63092 6.586 5.86367 7.168 5.80446 7.754V28.92C5.94533 29.682 5.69217 30.466 5.145 31.02L0 37.128V37.92H14.5877V37.118L9.44271 31.02C8.88533 30.464 8.62196 29.694 8.73425 28.92V10.612L21.5396 37.93H23.028L34.0387 10.612V32.374C34.0387 32.948 34.0387 33.066 33.6548 33.442L29.694 37.196V38H48.9102V37.198L45.0923 33.536C44.7574 33.288 44.5839 32.872 44.6553 32.468V5.534C44.5839 5.128 44.7554 4.712 45.0902 4.466Z" fill="url(#paint0_linear_21_831)"/>
<defs>
<linearGradient id="paint0_linear_21_831" x1="11.5445" y1="3.84433e-06" x2="51.0268" y2="14.1737" gradientUnits="userSpaceOnUse">
<stop stop-color="#E2F685"/>
<stop offset="1" stop-color="#8AF9AD"/>
</linearGradient>
</defs>
</svg>
