<svg width="48" height="39" viewBox="0 0 48 39" fill="none" xmlns="http://www.w3.org/2000/svg">
<path d="M42.2091 9.92071C44.1222 8.56235 45.7314 6.86685 47.0427 4.91457V4.91261C45.2924 5.67902 43.4302 6.18865 41.4858 6.43562C43.4851 5.24191 45.0121 3.36608 45.7295 1.10607C43.8654 2.21746 41.8073 3.0015 39.6139 3.44057C37.8439 1.55494 35.3213 0.388672 32.5693 0.388672C27.2299 0.388672 22.9314 4.72248 22.9314 10.0344C22.9314 10.7988 22.9961 11.5339 23.1548 12.2336C15.138 11.8416 8.04235 7.99979 3.27535 2.14493C2.44426 3.58954 1.95423 5.24191 1.95423 7.01974C1.95423 10.3598 3.67325 13.3195 6.23904 15.0346C4.68859 15.0052 3.1695 14.5544 1.88171 13.8468V13.9527C1.88171 18.6393 5.2237 22.5321 9.60848 23.4298C8.82247 23.6454 7.96786 23.7473 7.07993 23.7473C6.4625 23.7473 5.83918 23.7121 5.25507 23.5827C6.50366 27.401 10.0515 30.2098 14.2657 30.302C10.9845 32.8678 6.81728 34.4143 2.30705 34.4143C1.51713 34.4143 0.758564 34.379 0 34.283C4.27305 37.0369 9.33406 38.6109 14.7949 38.6109C31.8146 38.6109 42.9069 24.4118 42.2091 9.92071Z" fill="url(#paint0_linear_21_810)"/>
<defs>
<linearGradient id="paint0_linear_21_810" x1="11.0834" y1="0.388676" x2="49.3776" y2="13.51" gradientUnits="userSpaceOnUse">
<stop stop-color="#E2F685"/>
<stop offset="1" stop-color="#8AF9AD"/>
</linearGradient>
</defs>
</svg>
