<svg width="50" height="35" viewBox="0 0 50 35" fill="none" xmlns="http://www.w3.org/2000/svg">
<path d="M48.9698 5.47666C48.3936 3.33512 46.7048 1.64697 44.5631 1.07031C40.6504 0 24.9994 0 24.9994 0C24.9994 0 9.34908 0 5.43641 1.02973C3.33588 1.60578 1.60584 3.33543 1.02967 5.47666C0 9.38813 0 17.5 0 17.5C0 17.5 0 25.6528 1.02967 29.5233C1.60645 31.6646 3.29468 33.3527 5.43672 33.9294C9.39028 35 25 35 25 35C25 35 40.6504 35 44.5631 33.9703C46.7051 33.3939 48.3936 31.7058 48.9704 29.5645C49.9998 25.6528 49.9998 17.5412 49.9998 17.5412C49.9998 17.5412 50.041 9.38813 48.9698 5.47666ZM20.0165 24.994V10.006L33.0311 17.5L20.0165 24.994Z" fill="url(#paint0_linear_21_814)"/>
<defs>
<linearGradient id="paint0_linear_21_814" x1="11.7801" y1="3.54083e-06" x2="51.0488" y2="15.6177" gradientUnits="userSpaceOnUse">
<stop stop-color="#E2F685"/>
<stop offset="1" stop-color="#8AF9AD"/>
</linearGradient>
</defs>
</svg>
